<svg id="visual" viewBox="0 0 1920 1080" width="1920" height="1080" xmlns="http://www.w3.org/2000/svg" xmlns:xlink="http://www.w3.org/1999/xlink" version="1.1"><rect x="0" y="0" width="1920" height="1080" fill="#ffffff"></rect><path d="M0 829L35.5 816.3C71 803.7 142 778.3 213.2 774.5C284.3 770.7 355.7 788.3 426.8 798.3C498 808.3 569 810.7 640 820.5C711 830.3 782 847.7 853.2 841.7C924.3 835.7 995.7 806.3 1066.8 806.7C1138 807 1209 837 1280 837.3C1351 837.7 1422 808.3 1493.2 800.5C1564.3 792.7 1635.7 806.3 1706.8 822.3C1778 838.3 1849 856.7 1884.5 865.8L1920 875L1920 1081L1884.5 1081C1849 1081 1778 1081 1706.8 1081C1635.7 1081 1564.3 1081 1493.2 1081C1422 1081 1351 1081 1280 1081C1209 1081 1138 1081 1066.8 1081C995.7 1081 924.3 1081 853.2 1081C782 1081 711 1081 640 1081C569 1081 498 1081 426.8 1081C355.7 1081 284.3 1081 213.2 1081C142 1081 71 1081 35.5 1081L0 1081Z" fill="#79d4fd"></path><path d="M0 865L35.5 870.7C71 876.3 142 887.7 213.2 875.3C284.3 863 355.7 827 426.8 821.5C498 816 569 841 640 860.8C711 880.7 782 895.3 853.2 892.8C924.3 890.3 995.7 870.7 1066.8 864.5C1138 858.3 1209 865.7 1280 863.2C1351 860.7 1422 848.3 1493.2 841.5C1564.3 834.7 1635.7 833.3 1706.8 841.3C1778 849.3 1849 866.7 1884.5 875.3L1920 884L1920 1081L1884.5 1081C1849 1081 1778 1081 1706.8 1081C1635.7 1081 1564.3 1081 1493.2 1081C1422 1081 1351 1081 1280 1081C1209 1081 1138 1081 1066.8 1081C995.7 1081 924.3 1081 853.2 1081C782 1081 711 1081 640 1081C569 1081 498 1081 426.8 1081C355.7 1081 284.3 1081 213.2 1081C142 1081 71 1081 35.5 1081L0 1081Z" fill="#64bde2"></path><path d="M0 877L35.5 875.3C71 873.7 142 870.3 213.2 876.2C284.3 882 355.7 897 426.8 904.3C498 911.7 569 911.3 640 912.2C711 913 782 915 853.2 901.3C924.3 887.7 995.7 858.3 1066.8 855.8C1138 853.3 1209 877.7 1280 881.2C1351 884.7 1422 867.3 1493.2 857.8C1564.3 848.3 1635.7 846.7 1706.8 850.7C1778 854.7 1849 864.3 1884.5 869.2L1920 874L1920 1081L1884.5 1081C1849 1081 1778 1081 1706.8 1081C1635.7 1081 1564.3 1081 1493.2 1081C1422 1081 1351 1081 1280 1081C1209 1081 1138 1081 1066.8 1081C995.7 1081 924.3 1081 853.2 1081C782 1081 711 1081 640 1081C569 1081 498 1081 426.8 1081C355.7 1081 284.3 1081 213.2 1081C142 1081 71 1081 35.5 1081L0 1081Z" fill="#4fa7c8"></path><path d="M0 950L35.5 948.3C71 946.7 142 943.3 213.2 935.2C284.3 927 355.7 914 426.8 907C498 900 569 899 640 908C711 917 782 936 853.2 935.8C924.3 935.7 995.7 916.3 1066.8 916.5C1138 916.7 1209 936.3 1280 943.3C1351 950.3 1422 944.7 1493.2 939.2C1564.3 933.7 1635.7 928.3 1706.8 918.8C1778 909.3 1849 895.7 1884.5 888.8L1920 882L1920 1081L1884.5 1081C1849 1081 1778 1081 1706.8 1081C1635.7 1081 1564.3 1081 1493.2 1081C1422 1081 1351 1081 1280 1081C1209 1081 1138 1081 1066.8 1081C995.7 1081 924.3 1081 853.2 1081C782 1081 711 1081 640 1081C569 1081 498 1081 426.8 1081C355.7 1081 284.3 1081 213.2 1081C142 1081 71 1081 35.5 1081L0 1081Z" fill="#3b91ae"></path><path d="M0 979L35.5 975.7C71 972.3 142 965.7 213.2 967.8C284.3 970 355.7 981 426.8 980C498 979 569 966 640 956.7C711 947.3 782 941.7 853.2 943.8C924.3 946 995.7 956 1066.8 962.3C1138 968.7 1209 971.3 1280 968.5C1351 965.7 1422 957.3 1493.2 950.5C1564.3 943.7 1635.7 938.3 1706.8 937.7C1778 937 1849 941 1884.5 943L1920 945L1920 1081L1884.5 1081C1849 1081 1778 1081 1706.8 1081C1635.7 1081 1564.3 1081 1493.2 1081C1422 1081 1351 1081 1280 1081C1209 1081 1138 1081 1066.8 1081C995.7 1081 924.3 1081 853.2 1081C782 1081 711 1081 640 1081C569 1081 498 1081 426.8 1081C355.7 1081 284.3 1081 213.2 1081C142 1081 71 1081 35.5 1081L0 1081Z" fill="#257c96"></path><path d="M0 1006L35.5 1006.8C71 1007.7 142 1009.3 213.2 1010C284.3 1010.7 355.7 1010.3 426.8 1006.7C498 1003 569 996 640 996.3C711 996.7 782 1004.3 853.2 1008.8C924.3 1013.3 995.7 1014.7 1066.8 1010.2C1138 1005.7 1209 995.3 1280 989.3C1351 983.3 1422 981.7 1493.2 985.8C1564.3 990 1635.7 1000 1706.8 1003.2C1778 1006.3 1849 1002.7 1884.5 1000.8L1920 999L1920 1081L1884.5 1081C1849 1081 1778 1081 1706.8 1081C1635.7 1081 1564.3 1081 1493.2 1081C1422 1081 1351 1081 1280 1081C1209 1081 1138 1081 1066.8 1081C995.7 1081 924.3 1081 853.2 1081C782 1081 711 1081 640 1081C569 1081 498 1081 426.8 1081C355.7 1081 284.3 1081 213.2 1081C142 1081 71 1081 35.5 1081L0 1081Z" fill="#08677e"></path></svg>