<svg id="visual" viewBox="0 0 1920 1080" width="1920" height="1080" xmlns="http://www.w3.org/2000/svg" xmlns:xlink="http://www.w3.org/1999/xlink" version="1.1"><rect x="0" y="0" width="1920" height="1080" fill="#ffffff"></rect><path d="M0 249L35.5 261.7C71 274.3 142 299.7 213.2 303.5C284.3 307.3 355.7 289.7 426.8 279.7C498 269.7 569 267.3 640 257.5C711 247.7 782 230.3 853.2 236.3C924.3 242.3 995.7 271.7 1066.8 271.3C1138 271 1209 241 1280 240.7C1351 240.3 1422 269.7 1493.2 277.5C1564.3 285.3 1635.7 271.7 1706.8 255.7C1778 239.7 1849 221.3 1884.5 212.2L1920 203L1920 0L1884.5 0C1849 0 1778 0 1706.8 0C1635.7 0 1564.3 0 1493.2 0C1422 0 1351 0 1280 0C1209 0 1138 0 1066.8 0C995.7 0 924.3 0 853.2 0C782 0 711 0 640 0C569 0 498 0 426.8 0C355.7 0 284.3 0 213.2 0C142 0 71 0 35.5 0L0 0Z" fill="#79d4fd"></path><path d="M0 213L35.5 207.3C71 201.7 142 190.3 213.2 202.7C284.3 215 355.7 251 426.8 256.5C498 262 569 237 640 217.2C711 197.3 782 182.7 853.2 185.2C924.3 187.7 995.7 207.3 1066.8 213.5C1138 219.7 1209 212.3 1280 214.8C1351 217.3 1422 229.7 1493.2 236.5C1564.3 243.3 1635.7 244.7 1706.8 236.7C1778 228.7 1849 211.3 1884.5 202.7L1920 194L1920 0L1884.5 0C1849 0 1778 0 1706.8 0C1635.7 0 1564.3 0 1493.2 0C1422 0 1351 0 1280 0C1209 0 1138 0 1066.8 0C995.7 0 924.3 0 853.2 0C782 0 711 0 640 0C569 0 498 0 426.8 0C355.7 0 284.3 0 213.2 0C142 0 71 0 35.5 0L0 0Z" fill="#64bde2"></path><path d="M0 201L35.5 202.7C71 204.3 142 207.7 213.2 201.8C284.3 196 355.7 181 426.8 173.7C498 166.3 569 166.7 640 165.8C711 165 782 163 853.2 176.7C924.3 190.3 995.7 219.7 1066.8 222.2C1138 224.7 1209 200.3 1280 196.8C1351 193.3 1422 210.7 1493.2 220.2C1564.3 229.7 1635.7 231.3 1706.8 227.3C1778 223.3 1849 213.7 1884.5 208.8L1920 204L1920 0L1884.5 0C1849 0 1778 0 1706.8 0C1635.7 0 1564.3 0 1493.2 0C1422 0 1351 0 1280 0C1209 0 1138 0 1066.8 0C995.7 0 924.3 0 853.2 0C782 0 711 0 640 0C569 0 498 0 426.8 0C355.7 0 284.3 0 213.2 0C142 0 71 0 35.5 0L0 0Z" fill="#4fa7c8"></path><path d="M0 128L35.5 129.7C71 131.3 142 134.7 213.2 142.8C284.3 151 355.7 164 426.8 171C498 178 569 179 640 170C711 161 782 142 853.2 142.2C924.3 142.3 995.7 161.7 1066.8 161.5C1138 161.3 1209 141.7 1280 134.7C1351 127.7 1422 133.3 1493.2 138.8C1564.3 144.3 1635.7 149.7 1706.8 159.2C1778 168.7 1849 182.3 1884.5 189.2L1920 196L1920 0L1884.5 0C1849 0 1778 0 1706.8 0C1635.7 0 1564.3 0 1493.2 0C1422 0 1351 0 1280 0C1209 0 1138 0 1066.8 0C995.7 0 924.3 0 853.2 0C782 0 711 0 640 0C569 0 498 0 426.8 0C355.7 0 284.3 0 213.2 0C142 0 71 0 35.5 0L0 0Z" fill="#3b91ae"></path><path d="M0 99L35.5 102.3C71 105.7 142 112.3 213.2 110.2C284.3 108 355.7 97 426.8 98C498 99 569 112 640 121.3C711 130.7 782 136.3 853.2 134.2C924.3 132 995.7 122 1066.8 115.7C1138 109.3 1209 106.7 1280 109.5C1351 112.3 1422 120.7 1493.2 127.5C1564.3 134.3 1635.7 139.7 1706.8 140.3C1778 141 1849 137 1884.5 135L1920 133L1920 0L1884.5 0C1849 0 1778 0 1706.8 0C1635.7 0 1564.3 0 1493.2 0C1422 0 1351 0 1280 0C1209 0 1138 0 1066.8 0C995.7 0 924.3 0 853.2 0C782 0 711 0 640 0C569 0 498 0 426.8 0C355.7 0 284.3 0 213.2 0C142 0 71 0 35.5 0L0 0Z" fill="#257c96"></path><path d="M0 72L35.5 71.2C71 70.3 142 68.7 213.2 68C284.3 67.3 355.7 67.7 426.8 71.3C498 75 569 82 640 81.7C711 81.3 782 73.7 853.2 69.2C924.3 64.7 995.7 63.3 1066.8 67.8C1138 72.3 1209 82.7 1280 88.7C1351 94.7 1422 96.3 1493.2 92.2C1564.3 88 1635.7 78 1706.8 74.8C1778 71.7 1849 75.3 1884.5 77.2L1920 79L1920 0L1884.5 0C1849 0 1778 0 1706.8 0C1635.7 0 1564.3 0 1493.2 0C1422 0 1351 0 1280 0C1209 0 1138 0 1066.8 0C995.7 0 924.3 0 853.2 0C782 0 711 0 640 0C569 0 498 0 426.8 0C355.7 0 284.3 0 213.2 0C142 0 71 0 35.5 0L0 0Z" fill="#08677e"></path></svg>