<svg id="visual" viewBox="0 0 1920 1080" width="1920" height="1080" xmlns="http://www.w3.org/2000/svg" xmlns:xlink="http://www.w3.org/1999/xlink" version="1.1"><path d="M0 206L29.2 218.7C58.3 231.3 116.7 256.7 174.8 269.3C233 282 291 282 349.2 258.5C407.3 235 465.7 188 523.8 186.2C582 184.3 640 227.7 698.2 226C756.3 224.3 814.7 177.7 872.8 165C931 152.3 989 173.7 1047.2 191.7C1105.3 209.7 1163.7 224.3 1221.8 220.8C1280 217.3 1338 195.7 1396.2 188.3C1454.3 181 1512.7 188 1570.8 197C1629 206 1687 217 1745.2 209.8C1803.3 202.7 1861.7 177.3 1890.8 164.7L1920 152L1920 0L1890.8 0C1861.7 0 1803.3 0 1745.2 0C1687 0 1629 0 1570.8 0C1512.7 0 1454.3 0 1396.2 0C1338 0 1280 0 1221.8 0C1163.7 0 1105.3 0 1047.2 0C989 0 931 0 872.8 0C814.7 0 756.3 0 698.2 0C640 0 582 0 523.8 0C465.7 0 407.3 0 349.2 0C291 0 233 0 174.8 0C116.7 0 58.3 0 29.2 0L0 0Z" fill="#79d4fd"></path><path d="M0 271L29.2 290.8C58.3 310.7 116.7 350.3 174.8 372C233 393.7 291 397.3 349.2 375.7C407.3 354 465.7 307 523.8 296.2C582 285.3 640 310.7 698.2 299.8C756.3 289 814.7 242 872.8 229.3C931 216.7 989 238.3 1047.2 256.3C1105.3 274.3 1163.7 288.7 1221.8 281.5C1280 274.3 1338 245.7 1396.2 235C1454.3 224.3 1512.7 231.7 1570.8 251.5C1629 271.3 1687 303.7 1745.2 309C1803.3 314.3 1861.7 292.7 1890.8 281.8L1920 271L1920 150L1890.8 162.7C1861.7 175.3 1803.3 200.7 1745.2 207.8C1687 215 1629 204 1570.8 195C1512.7 186 1454.3 179 1396.2 186.3C1338 193.7 1280 215.3 1221.8 218.8C1163.7 222.3 1105.3 207.7 1047.2 189.7C989 171.7 931 150.3 872.8 163C814.7 175.7 756.3 222.3 698.2 224C640 225.7 582 182.3 523.8 184.2C465.7 186 407.3 233 349.2 256.5C291 280 233 280 174.8 267.3C116.7 254.7 58.3 229.3 29.2 216.7L0 204Z" fill="#67c1e7"></path><path d="M0 411L29.2 421.8C58.3 432.7 116.7 454.3 174.8 472.3C233 490.3 291 504.7 349.2 479.5C407.3 454.3 465.7 389.7 523.8 382.5C582 375.3 640 425.7 698.2 427.5C756.3 429.3 814.7 382.7 872.8 371.8C931 361 989 386 1047.2 404C1105.3 422 1163.7 433 1221.8 416.8C1280 400.7 1338 357.3 1396.2 348.3C1454.3 339.3 1512.7 364.7 1570.8 384.5C1629 404.3 1687 418.7 1745.2 427.7C1803.3 436.7 1861.7 440.3 1890.8 442.2L1920 444L1920 269L1890.8 279.8C1861.7 290.7 1803.3 312.3 1745.2 307C1687 301.7 1629 269.3 1570.8 249.5C1512.7 229.7 1454.3 222.3 1396.2 233C1338 243.7 1280 272.3 1221.8 279.5C1163.7 286.7 1105.3 272.3 1047.2 254.3C989 236.3 931 214.7 872.8 227.3C814.7 240 756.3 287 698.2 297.8C640 308.7 582 283.3 523.8 294.2C465.7 305 407.3 352 349.2 373.7C291 395.3 233 391.7 174.8 370C116.7 348.3 58.3 308.7 29.2 288.8L0 269Z" fill="#56aed1"></path><path d="M0 768L29.2 764.3C58.3 760.7 116.7 753.3 174.8 747.8C233 742.3 291 738.7 349.2 727.8C407.3 717 465.7 699 523.8 688.3C582 677.7 640 674.3 698.2 678C756.3 681.7 814.7 692.3 872.8 719.3C931 746.3 989 789.7 1047.2 780.7C1105.3 771.7 1163.7 710.3 1221.8 688.7C1280 667 1338 685 1396.2 681.3C1454.3 677.7 1512.7 652.3 1570.8 663.2C1629 674 1687 721 1745.2 751.7C1803.3 782.3 1861.7 796.7 1890.8 803.8L1920 811L1920 442L1890.8 440.2C1861.7 438.3 1803.3 434.7 1745.2 425.7C1687 416.7 1629 402.3 1570.8 382.5C1512.7 362.7 1454.3 337.3 1396.2 346.3C1338 355.3 1280 398.7 1221.8 414.8C1163.7 431 1105.3 420 1047.2 402C989 384 931 359 872.8 369.8C814.7 380.7 756.3 427.3 698.2 425.5C640 423.7 582 373.3 523.8 380.5C465.7 387.7 407.3 452.3 349.2 477.5C291 502.7 233 488.3 174.8 470.3C116.7 452.3 58.3 430.7 29.2 419.8L0 409Z" fill="#459cbb"></path><path d="M0 887L29.2 874.3C58.3 861.7 116.7 836.3 174.8 827.3C233 818.3 291 825.7 349.2 816.7C407.3 807.7 465.7 782.3 523.8 780.5C582 778.7 640 800.3 698.2 811.2C756.3 822 814.7 822 872.8 832.8C931 843.7 989 865.3 1047.2 847.3C1105.3 829.3 1163.7 771.7 1221.8 768C1280 764.3 1338 814.7 1396.2 825.5C1454.3 836.3 1512.7 807.7 1570.8 807.7C1629 807.7 1687 836.3 1745.2 865C1803.3 893.7 1861.7 922.3 1890.8 936.7L1920 951L1920 809L1890.8 801.8C1861.7 794.7 1803.3 780.3 1745.2 749.7C1687 719 1629 672 1570.8 661.2C1512.7 650.3 1454.3 675.7 1396.2 679.3C1338 683 1280 665 1221.8 686.7C1163.7 708.3 1105.3 769.7 1047.2 778.7C989 787.7 931 744.3 872.8 717.3C814.7 690.3 756.3 679.7 698.2 676C640 672.3 582 675.7 523.8 686.3C465.7 697 407.3 715 349.2 725.8C291 736.7 233 740.3 174.8 745.8C116.7 751.3 58.3 758.7 29.2 762.3L0 766Z" fill="#348aa6"></path><path d="M0 962L29.2 947.7C58.3 933.3 116.7 904.7 174.8 890.3C233 876 291 876 349.2 865.2C407.3 854.3 465.7 832.7 523.8 836.2C582 839.7 640 868.3 698.2 882.7C756.3 897 814.7 897 872.8 904.3C931 911.7 989 926.3 1047.2 917.3C1105.3 908.3 1163.7 875.7 1221.8 881C1280 886.3 1338 929.7 1396.2 938.7C1454.3 947.7 1512.7 922.3 1570.8 911.5C1629 900.7 1687 904.3 1745.2 924.2C1803.3 944 1861.7 980 1890.8 998L1920 1016L1920 949L1890.8 934.7C1861.7 920.3 1803.3 891.7 1745.2 863C1687 834.3 1629 805.7 1570.8 805.7C1512.7 805.7 1454.3 834.3 1396.2 823.5C1338 812.7 1280 762.3 1221.8 766C1163.7 769.7 1105.3 827.3 1047.2 845.3C989 863.3 931 841.7 872.8 830.8C814.7 820 756.3 820 698.2 809.2C640 798.3 582 776.7 523.8 778.5C465.7 780.3 407.3 805.7 349.2 814.7C291 823.7 233 816.3 174.8 825.3C116.7 834.3 58.3 859.7 29.2 872.3L0 885Z" fill="#217892"></path><path d="M0 1081L29.2 1081C58.3 1081 116.7 1081 174.8 1081C233 1081 291 1081 349.2 1081C407.3 1081 465.7 1081 523.8 1081C582 1081 640 1081 698.2 1081C756.3 1081 814.7 1081 872.8 1081C931 1081 989 1081 1047.2 1081C1105.3 1081 1163.7 1081 1221.8 1081C1280 1081 1338 1081 1396.2 1081C1454.3 1081 1512.7 1081 1570.8 1081C1629 1081 1687 1081 1745.2 1081C1803.3 1081 1861.7 1081 1890.8 1081L1920 1081L1920 1014L1890.8 996C1861.7 978 1803.3 942 1745.2 922.2C1687 902.3 1629 898.7 1570.8 909.5C1512.7 920.3 1454.3 945.7 1396.2 936.7C1338 927.7 1280 884.3 1221.8 879C1163.7 873.7 1105.3 906.3 1047.2 915.3C989 924.3 931 909.7 872.8 902.3C814.7 895 756.3 895 698.2 880.7C640 866.3 582 837.7 523.8 834.2C465.7 830.7 407.3 852.3 349.2 863.2C291 874 233 874 174.8 888.3C116.7 902.7 58.3 931.3 29.2 945.7L0 960Z" fill="#08677e"></path></svg>